<svg width="52" height="54" viewBox="0 0 52 54" fill="none" xmlns="http://www.w3.org/2000/svg">
<rect x="18.5" y="6.5" width="33" height="41" rx="1.5" fill="#FFE3F4" stroke="black"/>
<rect x="21.5" y="9.5" width="27" height="27" rx="0.5" fill="white" stroke="black"/>
<rect x="0.597303" y="3.18264" width="14.9936" height="51.0028" rx="1.5" transform="rotate(-9.97962 0.597303 3.18264)" fill="#C6EAFA" stroke="black"/>
<rect x="2.90906" y="4.81183" width="11" height="7" rx="1.5" transform="rotate(-10 2.90906 4.81183)" fill="white"/>
<rect x="2.90906" y="4.81183" width="11" height="7" rx="1.5" transform="rotate(-10 2.90906 4.81183)" stroke="black"/>
<rect x="2.90906" y="4.81183" width="11" height="7" rx="1.5" transform="rotate(-10 2.90906 4.81183)" stroke="black"/>
<rect x="2.90906" y="4.81183" width="11" height="7" rx="1.5" transform="rotate(-10 2.90906 4.81183)" stroke="black"/>
<rect x="2.90906" y="4.81183" width="11" height="7" rx="1.5" transform="rotate(-10 2.90906 4.81183)" stroke="black"/>
<rect x="8.1185" y="34.3563" width="11" height="7" rx="1.5" transform="rotate(-10 8.1185 34.3563)" fill="white"/>
<rect x="8.1185" y="34.3563" width="11" height="7" rx="1.5" transform="rotate(-10 8.1185 34.3563)" stroke="black"/>
<rect x="8.1185" y="34.3563" width="11" height="7" rx="1.5" transform="rotate(-10 8.1185 34.3563)" stroke="black"/>
<rect x="8.1185" y="34.3563" width="11" height="7" rx="1.5" transform="rotate(-10 8.1185 34.3563)" stroke="black"/>
<rect x="8.1185" y="34.3563" width="11" height="7" rx="1.5" transform="rotate(-10 8.1185 34.3563)" stroke="black"/>
<rect x="4.64554" y="14.66" width="11" height="7" rx="1.5" transform="rotate(-10 4.64554 14.66)" fill="white"/>
<rect x="4.64554" y="14.66" width="11" height="7" rx="1.5" transform="rotate(-10 4.64554 14.66)" stroke="black"/>
<rect x="4.64554" y="14.66" width="11" height="7" rx="1.5" transform="rotate(-10 4.64554 14.66)" stroke="black"/>
<rect x="4.64554" y="14.66" width="11" height="7" rx="1.5" transform="rotate(-10 4.64554 14.66)" stroke="black"/>
<rect x="4.64554" y="14.66" width="11" height="7" rx="1.5" transform="rotate(-10 4.64554 14.66)" stroke="black"/>
<rect x="6.38202" y="24.5081" width="11" height="7" rx="1.5" transform="rotate(-10 6.38202 24.5081)" fill="white"/>
<rect x="6.38202" y="24.5081" width="11" height="7" rx="1.5" transform="rotate(-10 6.38202 24.5081)" stroke="black"/>
<rect x="6.38202" y="24.5081" width="11" height="7" rx="1.5" transform="rotate(-10 6.38202 24.5081)" stroke="black"/>
<rect x="6.38202" y="24.5081" width="11" height="7" rx="1.5" transform="rotate(-10 6.38202 24.5081)" stroke="black"/>
<rect x="6.38202" y="24.5081" width="11" height="7" rx="1.5" transform="rotate(-10 6.38202 24.5081)" stroke="black"/>
</svg>
