<svg width="50" height="50" viewBox="0 0 50 50" fill="none" xmlns="http://www.w3.org/2000/svg">
<rect x="0.5" y="0.5" width="49" height="49" rx="1.5" fill="#E1C4FF" stroke="black"/>
<path d="M20.125 33.25V14.2917L37.625 11.375V30.3333M20.125 33.25C20.125 35.6662 18.1662 37.625 15.75 37.625C13.3338 37.625 11.375 35.6662 11.375 33.25C11.375 30.8338 13.3338 28.875 15.75 28.875C18.1662 28.875 20.125 30.8338 20.125 33.25ZM37.625 30.3333C37.625 32.7496 35.6662 34.7083 33.25 34.7083C30.8338 34.7083 28.875 32.7496 28.875 30.3333C28.875 27.9171 30.8338 25.9583 33.25 25.9583C35.6662 25.9583 37.625 27.9171 37.625 30.3333Z" stroke="#1E1E1E" stroke-linecap="round" stroke-linejoin="round"/>
</svg>
