<svg width="50" height="50" viewBox="0 0 50 50" fill="none" xmlns="http://www.w3.org/2000/svg">
<rect x="0.5" y="0.5" width="49" height="49" rx="1.5" fill="#DEF4DF" stroke="black"/>
<path d="M28.5 19.1665H32C32.7661 19.1665 33.5246 19.3174 34.2323 19.6105C34.9401 19.9037 35.5831 20.3334 36.1248 20.875C36.6665 21.4167 37.0962 22.0598 37.3893 22.7675C37.6825 23.4753 37.8334 24.2338 37.8334 24.9998C37.8334 25.7659 37.6825 26.5244 37.3893 27.2322C37.0962 27.9399 36.6665 28.583 36.1248 29.1246C35.5831 29.6663 34.9401 30.096 34.2323 30.3891C33.5246 30.6823 32.7661 30.8332 32 30.8332H28.5M21.5 30.8332H18C17.234 30.8332 16.4754 30.6823 15.7677 30.3891C15.06 30.096 14.4169 29.6663 13.8752 29.1246C12.7813 28.0307 12.1667 26.5469 12.1667 24.9998C12.1667 23.4527 12.7813 21.969 13.8752 20.875C14.9692 19.7811 16.4529 19.1665 18 19.1665H21.5M20.3334 24.9998H29.6667" stroke="black" stroke-linecap="round" stroke-linejoin="round"/>
</svg>
